METADATA block #0
  type: 0 (STREAMINFO)
  is last: false
  length: 34
  minimum blocksize: 4096 samples
  maximum blocksize: 4096 samples
  minimum framesize: 11118 bytes
  maximum framesize: 16396 bytes
  sample_rate: 44100 Hz
  channels: 2
  bits-per-sample: 16
  total samples: 37661400
  MD5 signature: 7f25a5e9b9490f4facfbee312c188567
METADATA block #1
  type: 3 (SEEKTABLE)
  is last: false
  length: 1548
  seek points: 86
    point 0: sample_number=0, stream_offset=0, frame_samples=4096
    point 1: sample_number=438272, stream_offset=1754158, frame_samples=4096
    point 2: sample_number=880640, stream_offset=3524797, frame_samples=4096
    point 3: sample_number=1318912, stream_offset=5279062, frame_samples=4096
    point 4: sample_number=1761280, stream_offset=7049722, frame_samples=4096
    point 5: sample_number=2203648, stream_offset=8820382, frame_samples=4096
    point 6: sample_number=2641920, stream_offset=10574647, frame_samples=4096
    point 7: sample_number=3084288, stream_offset=12345307, frame_samples=4096
    point 8: sample_number=3526656, stream_offset=14115967, frame_samples=4096
    point 9: sample_number=3964928, stream_offset=15870232, frame_samples=4096
    point 10: sample_number=4407296, stream_offset=17640892, frame_samples=4096
    point 11: sample_number=4849664, stream_offset=19411552, frame_samples=4096
    point 12: sample_number=5287936, stream_offset=21165817, frame_samples=4096
    point 13: sample_number=5730304, stream_offset=22936477, frame_samples=4096
    point 14: sample_number=6172672, stream_offset=24707137, frame_samples=4096
    point 15: sample_number=6610944, stream_offset=26461402, frame_samples=4096
    point 16: sample_number=7053312, stream_offset=28232062, frame_samples=4096
    point 17: sample_number=7495680, stream_offset=30002722, frame_samples=4096
    point 18: sample_number=7933952, stream_offset=31756987, frame_samples=4096
    point 19: sample_number=8376320, stream_offset=33527647, frame_samples=4096
    point 20: sample_number=8818688, stream_offset=35298412, frame_samples=4096
    point 21: sample_number=9256960, stream_offset=37052784, frame_samples=4096
    point 22: sample_number=9699328, stream_offset=38823552, frame_samples=4096
    point 23: sample_number=10141696, stream_offset=40594320, frame_samples=4096
    point 24: sample_number=10579968, stream_offset=42348692, frame_samples=4096
    point 25: sample_number=11022336, stream_offset=44119460, frame_samples=4096
    point 26: sample_number=11464704, stream_offset=45890228, frame_samples=4096
    point 27: sample_number=11902976, stream_offset=47644600, frame_samples=4096
    point 28: sample_number=12345344, stream_offset=49415368, frame_samples=4096
    point 29: sample_number=12787712, stream_offset=51186136, frame_samples=4096
    point 30: sample_number=13225984, stream_offset=52940508, frame_samples=4096
    point 31: sample_number=13668352, stream_offset=54711276, frame_samples=4096
    point 32: sample_number=14110720, stream_offset=56482044, frame_samples=4096
    point 33: sample_number=14548992, stream_offset=58236416, frame_samples=4096
    point 34: sample_number=14991360, stream_offset=60007184, frame_samples=4096
    point 35: sample_number=15433728, stream_offset=61777952, frame_samples=4096
    point 36: sample_number=15872000, stream_offset=63532324, frame_samples=4096
    point 37: sample_number=16314368, stream_offset=65303092, frame_samples=4096
    point 38: sample_number=16756736, stream_offset=67073860, frame_samples=4096
    point 39: sample_number=17195008, stream_offset=68828232, frame_samples=4096
    point 40: sample_number=17637376, stream_offset=70599000, frame_samples=4096
    point 41: sample_number=18079744, stream_offset=72369768, frame_samples=4096
    point 42: sample_number=18518016, stream_offset=74124140, frame_samples=4096
    point 43: sample_number=18960384, stream_offset=75894908, frame_samples=4096
    point 44: sample_number=19402752, stream_offset=77665676, frame_samples=4096
    point 45: sample_number=19841024, stream_offset=79420048, frame_samples=4096
    point 46: sample_number=20283392, stream_offset=81190816, frame_samples=4096
    point 47: sample_number=20725760, stream_offset=82961584, frame_samples=4096
    point 48: sample_number=21164032, stream_offset=84715956, frame_samples=4096
    point 49: sample_number=21606400, stream_offset=86486724, frame_samples=4096
    point 50: sample_number=22048768, stream_offset=88257492, frame_samples=4096
    point 51: sample_number=22487040, stream_offset=90011864, frame_samples=4096
    point 52: sample_number=22929408, stream_offset=91782632, frame_samples=4096
    point 53: sample_number=23371776, stream_offset=93553400, frame_samples=4096
    point 54: sample_number=23810048, stream_offset=95307772, frame_samples=4096
    point 55: sample_number=24252416, stream_offset=97078540, frame_samples=4096
    point 56: sample_number=24694784, stream_offset=98849308, frame_samples=4096
    point 57: sample_number=25133056, stream_offset=100603680, frame_samples=4096
    point 58: sample_number=25575424, stream_offset=102374448, frame_samples=4096
    point 59: sample_number=26017792, stream_offset=104145216, frame_samples=4096
    point 60: sample_number=26456064, stream_offset=105899588, frame_samples=4096
    point 61: sample_number=26898432, stream_offset=107670356, frame_samples=4096
    point 62: sample_number=27340800, stream_offset=109441124, frame_samples=4096
    point 63: sample_number=27779072, stream_offset=111195496, frame_samples=4096
    point 64: sample_number=28221440, stream_offset=112966264, frame_samples=4096
    point 65: sample_number=28663808, stream_offset=114737032, frame_samples=4096
    point 66: sample_number=29102080, stream_offset=116491404, frame_samples=4096
    point 67: sample_number=29544448, stream_offset=118262172, frame_samples=4096
    point 68: sample_number=29986816, stream_offset=120032940, frame_samples=4096
    point 69: sample_number=30425088, stream_offset=121787312, frame_samples=4096
    point 70: sample_number=30867456, stream_offset=123558080, frame_samples=4096
    point 71: sample_number=31309824, stream_offset=125328848, frame_samples=4096
    point 72: sample_number=31748096, stream_offset=127083220, frame_samples=4096
    point 73: sample_number=32190464, stream_offset=128853988, frame_samples=4096
    point 74: sample_number=32632832, stream_offset=130624756, frame_samples=4096
    point 75: sample_number=33071104, stream_offset=132379128, frame_samples=4096
    point 76: sample_number=33513472, stream_offset=134149896, frame_samples=4096
    point 77: sample_number=33955840, stream_offset=135920664, frame_samples=4096
    point 78: sample_number=34394112, stream_offset=137675036, frame_samples=4096
    point 79: sample_number=34836480, stream_offset=139445804, frame_samples=4096
    point 80: sample_number=35278848, stream_offset=141216572, frame_samples=4096
    point 81: sample_number=35717120, stream_offset=142970944, frame_samples=4096
    point 82: sample_number=36159488, stream_offset=144741712, frame_samples=4096
    point 83: sample_number=36601856, stream_offset=146512480, frame_samples=4096
    point 84: sample_number=37040128, stream_offset=148266852, frame_samples=4096
    point 85: sample_number=37482496, stream_offset=150037620, frame_samples=4096
METADATA block #2
  type: 4 (VORBIS_COMMENT)
  is last: false
  length: 798
  vendor string: reference libFLAC 1.3.3 20190804
  comments: 15
    comment[0]: artist=Track 02 Performer Tag
    comment[1]: album=Album Title Tag
    comment[2]: genre=Genre Tag
    comment[3]: date=2011
    comment[4]: title=Track 02 Title Tag
    comment[5]: albumartist=Disk Performer Tag
    comment[6]: comment=Comment Tag
    comment[7]: discId=12345678
    comment[8]: tracknumber=2
    comment[9]: totaltracks=2
    comment[10]: tracktotal=2
    comment[11]: disc=3
    comment[12]: discnumber=3
    comment[13]: disctotal=4
    comment[14]: cuesheet=REM GENRE "Genre Tag"
REM DATE 2011
REM DISCID 12345678
REM COMMENT "Flacon v8.3.0"
REM TOTALDISCS 4
REM DISCNUMBER 3
TITLE "Album Title Tag"
FILE "00-track.flac" WAVE
  TRACK 01 AUDIO
    TITLE "Track 01 Title Tag"
    INDEX 00 00:00:00
FILE "01-track.flac" WAVE
    INDEX 01 00:00:00
    PERFORMER "Track 01 Performer Tag"
  TRACK 02 AUDIO
    TITLE "Track 02 Title Tag"
FILE "02-track.flac" WAVE
    INDEX 01 00:00:00
    PERFORMER "Track 02 Performer Tag"

METADATA block #3
  type: 6 (PICTURE)
  is last: false
  length: 508
  type: 3 (Cover (front))
  MIME type: image/png
  description: 
  width: 1
  height: 1
  depth: 32
  colors: 0 (unindexed)
  data length: 467
  data:
    00000000: 89 50 4E 47 0D 0A 1A 0A 00 00 00 0D 49 48 44 52 .PNG........IHDR
    00000010: 00 00 00 01 00 00 00 01 08 06 00 00 00 1F 15 C4 ...............Ä
    00000020: 89 00 00 01 6E 69 43 43 50 69 63 63 00 00 28 91 ....niCCPicc..(.
    00000030: 75 91 3B 4B 03 41 14 85 BF 3C 44 D1 48 0A 2D 44 u.;K.A..¿<DÑH.-D
    00000040: 2C 52 A8 A4 48 20 28 88 A5 C6 22 4D 10 89 11 8C ,R¨¤H (.¥Æ"M....
    00000050: DA 24 9B 97 90 6C 96 DD 04 09 B6 82 8D 45 C0 42 Ú$...l.Ý..¶..EÀB
    00000060: B4 F1 55 F8 0F B4 15 6C 15 04 41 11 44 AC FC 01 ´ñUø.´.l..A.D¬ü.
    00000070: BE 1A 09 EB 9D 24 10 11 33 CB EC FD 38 33 E7 32 ¾..ë.$..3Ëìý83ç2
    00000080: 73 06 9C D1 82 56 B4 DC 21 28 EA 65 33 16 09 FB s..Ñ.V´Ü!(êe3..û
    00000090: 96 13 2B BE EE 57 DC B8 F0 E0 C7 9D D4 2C 63 76 ..+¾îWÜ¸ðàÇ.Ô,cv
    000000A0: 61 21 4A C7 F1 75 8F 43 D5 BB A0 EA D5 79 DF BF a!JÇñu.CÕ» êÕyß¿
    000000B0: A3 2F 9D B1 34 70 F4 08 4F 69 86 59 16 9E 11 8E £/.±4pô.Oi.Y....
    000000C0: 6E 94 0D C5 3B C2 83 5A 3E 99 16 3E 12 0E 98 72 n..Å;Â.Z>..>...r
    000000D0: 40 E1 6B A5 A7 9A FC A2 38 D7 E4 0F C5 66 3C 36 @ák¥§.ü¢8×ä.Åf<6
    000000E0: 07 4E D5 D3 97 FB C5 A9 5F AC E5 CD A2 B0 5F 78 .NÕÓ.ûÅ©_¬åÍ¢°_x
    000000F0: B4 58 A8 68 AD F3 A8 9B 78 32 FA D2 A2 D4 61 99 ´X¨h­ó¨.x2úÒ¢Ôa.
    00000100: 23 58 C4 88 10 C6 47 8A 0A EB 14 28 13 94 AA 4B #XÄ..ÆG..ë.(..ªK
    00000110: 66 FF FB 42 0D DF 3C 25 F1 68 F2 37 A8 62 8A 23 fÿûB.ß<%ñhò7¨b.#
    00000120: 47 5E BC 01 51 2B D2 35 23 35 2B 7A 46 BE 02 55 G^¼.Q+Ò5#5+zF¾.U
    00000130: 95 FB DF 3C AD EC E4 44 B3 BB 27 0C 5D CF B6 FD .ûß<­ìäD³»'.]Ï¶ý
    00000140: 3E 06 DD BB 50 AF D9 F6 F7 B1 6D D7 4F C0 F5 04 >.Ý»P¯Ùö÷±m×OÀõ.
    00000150: 97 7A DB 5F 92 9C A6 3F 45 AF B5 B5 D1 43 F0 6E .zÛ_..¦?E¯µµÑCðn
    00000160: C1 F9 55 5B 4B ED C1 C5 36 0C 3D 1A 49 33 D9 90 ÁùU[KíÁÅ6.=.I3Ù.
    00000170: 5C 32 9D D9 2C BC 9D 41 7F 02 06 6E A1 77 B5 99 \2.Ù,¼.A...n¡wµ.
    00000180: 55 6B 9D D3 07 88 6F CA 13 DD C0 FE 01 8C CB 7E Uk.Ó..oÊ.ÝÀþ..Ë~
    00000190: EF DA 0F 95 98 67 D9 D3 57 2C FC 00 00 00 09 70 ïÚ...gÙÓW,ü....p
    000001A0: 48 59 73 00 00 0F 61 00 00 0F 61 01 A8 3F A7 69 HYs...a...a.¨?§i
    000001B0: 00 00 00 0B 49 44 41 54 08 5B 63 F8 0F 04 00 09 ....IDAT.[cø....
    000001C0: FB 03 FD 9F 1F 2C 00 00 00 00 00 49 45 4E 44 AE û.ý..,.....IEND®
    000001D0: 42 60 82 00 00 00 00 00 00 00 00 00 00 00 00 00 B`.             
METADATA block #4
  type: 1 (PADDING)
  is last: true
  length: 8192
